<svg width="48" height="48" viewBox="0 0 48 48" fill="none" xmlns="http://www.w3.org/2000/svg">
<circle cx="24" cy="24" r="24" fill="#FFD2A4"/>
<g clip-path="url(#clip0_102_667)">
<path d="M23.9999 20.7906C22.2302 20.7906 20.7905 22.2304 20.7905 24C20.7905 25.7696 22.2303 27.2094 23.9999 27.2094C25.7695 27.2094 27.2093 25.7696 27.2093 24C27.2093 22.2304 25.7696 20.7906 23.9999 20.7906ZM23.9999 25.686C23.0702 25.686 22.314 24.9296 22.314 24C22.314 23.0704 23.0703 22.3141 23.9999 22.3141C24.9295 22.3141 25.6858 23.0704 25.6858 24C25.6858 24.9296 24.9295 25.686 23.9999 25.686Z" fill="#161722"/>
<path d="M18.1956 18.1955L17.1183 17.1183C15.2775 18.9592 14.2637 21.4032 14.2637 24.0001C14.2637 26.5969 15.2775 29.0409 17.1184 30.8818L18.1956 29.8046C16.6424 28.2514 15.7871 26.19 15.7871 24.0001C15.7871 21.8101 16.6424 19.7487 18.1956 18.1955Z" fill="#161722"/>
<path d="M15.8889 15.8888L14.8117 14.8116C12.3537 17.2696 11 20.5328 11 24C11 27.4671 12.3537 30.7303 14.8117 33.1883L15.8889 32.111C13.7187 29.9408 12.5234 27.0602 12.5234 24C12.5234 20.9397 13.7187 18.0591 15.8889 15.8888Z" fill="#161722"/>
<path d="M33.1883 14.8116L32.1111 15.8889C34.2813 18.0591 35.4766 20.9397 35.4766 24C35.4766 27.0602 34.2813 29.9408 32.1111 32.1111L33.1884 33.1883C35.6463 30.7303 37 27.4671 37 24C37 20.5328 35.6463 17.2696 33.1883 14.8116Z" fill="#161722"/>
<path d="M30.8817 17.1183L29.8045 18.1955C31.3576 19.7487 32.213 21.8101 32.213 24.0001C32.213 26.19 31.3576 28.2514 29.8044 29.8046L30.8817 30.8818C32.7225 29.0409 33.7364 26.5969 33.7364 24.0001C33.7364 21.4032 32.7226 18.9592 30.8817 17.1183Z" fill="#161722"/>
<path d="M28.5751 19.4247L27.4979 20.5019C28.4339 21.438 28.9494 22.6802 28.9494 23.9998C28.9494 25.3194 28.4339 26.5617 27.4978 27.4977L28.5751 28.575C29.7989 27.3511 30.4728 25.7263 30.4728 23.9998C30.4729 22.2733 29.7989 20.6485 28.5751 19.4247Z" fill="#161722"/>
<path d="M20.5021 20.5019L19.4249 19.4247C18.2011 20.6485 17.5271 22.2733 17.5271 23.9998C17.5271 25.7263 18.2011 27.3512 19.4248 28.575L20.5021 27.4977C19.566 26.5616 19.0505 25.3194 19.0505 23.9998C19.0505 22.6802 19.5661 21.438 20.5021 20.5019Z" fill="#161722"/>
</g>
<defs>
<clipPath id="clip0_102_667">
<rect width="26" height="26" fill="white" transform="translate(11 11)"/>
</clipPath>
</defs>
</svg>
