<svg width="48" height="48" viewBox="0 0 48 48" fill="none" xmlns="http://www.w3.org/2000/svg">
<circle cx="24" cy="24" r="24" fill="#FFD2A4"/>
<g clip-path="url(#clip0_102_656)">
<path d="M30.7795 13.0002C28.9475 13.0002 27.8473 14.1754 27.247 15.1609C26.6467 14.1755 25.5465 13.0002 23.7145 13.0002C21.2847 13.0002 19.5376 15.021 19.5376 17.4793C19.5376 20.1475 21.6077 21.8759 24.7413 24.4922C26.6466 26.0828 26.8058 26.2438 27.247 26.6211C27.726 26.2238 27.8707 26.0186 30.0362 24.3531C32.3423 22.5794 34.9994 20.4053 34.9994 17.4793C34.9994 15.0506 33.2351 13.0002 30.7795 13.0002ZM29.2503 23.3313C28.6394 23.8012 27.9605 24.3234 27.2493 24.9195C26.6617 24.4163 26.1071 23.9533 25.5674 23.5027C22.6111 21.0344 20.8266 19.5445 20.8266 17.4793C20.8266 15.6607 22.0682 14.2893 23.7145 14.2893C25.4977 14.2893 26.304 15.9785 26.5679 16.7048L26.7221 17.1251H27.7719L27.9261 16.7048C28.19 15.9785 28.9962 14.2893 30.7794 14.2893C32.4503 14.2893 33.7103 15.6607 33.7103 17.4793C33.7103 19.8982 31.1454 21.8737 29.2503 23.3313Z" fill="#161722"/>
<path d="M24.7005 34.9105C25.0555 34.9696 25.418 34.9996 25.7778 34.9996C27.3281 34.9996 28.8328 34.4476 30.0153 33.4453L34.2807 29.8758C35.1217 29.1947 35.2434 27.9589 34.5498 27.1268C33.8726 26.3143 32.6912 26.1903 31.86 26.8445L29.0945 29.0978C28.9073 29.2537 28.7038 29.3869 28.4887 29.4957C28.5036 29.399 28.5114 29.2999 28.5114 29.199C28.5114 28.1329 27.644 27.2655 26.5778 27.2655H22.9777C22.5344 26.8488 21.449 25.9764 20.1327 25.9764C18.814 25.9764 17.6999 26.8542 17.2503 27.2655H13V33.7106H17.4586L24.7005 34.9105ZM15.5781 32.4216H14.289V28.5545H15.5781V32.4216ZM16.8671 28.5545H17.7926C18.4086 27.908 19.2376 27.2654 20.1326 27.2654C21.0235 27.2654 21.8213 27.8971 22.4227 28.5545H26.5778C26.9332 28.5545 27.2223 28.8436 27.2223 29.199C27.2223 29.5544 26.9332 29.8435 26.5778 29.8435H23.3552V31.1325H27.0329C28.084 31.1325 29.1079 30.7626 29.9163 30.0909L32.6609 27.8545C32.9394 27.6382 33.3334 27.6806 33.5595 27.952C33.7927 28.2317 33.7512 28.6474 33.4674 28.8756L29.1833 32.4606C28.2332 33.2667 27.0237 33.7106 25.7778 33.7106C25.4887 33.7106 25.1976 33.6865 24.9117 33.6389L17.5646 32.4216H16.8671V28.5545Z" fill="#161722"/>
</g>
<defs>
<clipPath id="clip0_102_656">
<rect width="22" height="22" fill="white" transform="translate(13 13)"/>
</clipPath>
</defs>
</svg>
